<?xml version="1.0" encoding="iso-8859-1"?>
<!-- Uploaded to: SVG Repo, www.svgrepo.com, Generator: SVG Repo Mixer Tools -->
<svg height="800px" width="800px" version="1.1" id="Layer_1" xmlns="http://www.w3.org/2000/svg" xmlns:xlink="http://www.w3.org/1999/xlink" 
	 viewBox="0 0 512 512" xml:space="preserve">
<path style="fill:#B3B3B3;" d="M473.093,0v399.943L94.927,448.752l-56.022,7.225V56.022c0-15.467,6.272-29.466,16.408-39.614
	C65.461,6.272,79.46,0,94.927,0H473.093z"/>
<path style="fill:#999999;" d="M94.927,0v448.752l-56.022,7.225V56.022c0-15.467,6.272-29.466,16.408-39.614
	C65.461,6.272,79.46,0,94.927,0z"/>
<path style="fill:#808080;" d="M117.696,512H94.929c-15.467,0-29.466-6.272-39.614-16.408
	c-10.136-10.148-16.408-24.16-16.408-39.627c0-30.934,25.088-56.022,56.022-56.022h336.156h42.01V512H197.978"/>
<path style="fill:#E6E6E6;" d="M431.083,399.943v73.37H70.717v-67.888c7.326-3.512,15.542-5.482,24.21-5.482L431.083,399.943
	L431.083,399.943z"/>
<path style="fill:#CCCCCC;" d="M431.085,399.943v19.23H94.929c-8.668,0-16.884,1.969-24.21,5.482v-19.23
	c7.326-3.512,15.542-5.482,24.21-5.482L431.085,399.943L431.085,399.943z"/>
<path style="fill:#808080;" d="M429.079,310.137V87.58c-24.184,0-43.789-19.605-43.789-43.789H184.742
	c0,24.184-19.605,43.789-43.789,43.789v222.557c24.184,0,43.789,19.605,43.789,43.789H385.29
	C385.289,329.742,404.894,310.137,429.079,310.137z"/>
<g>
	<polygon style="fill:#F7B239;" points="319.773,116.501 332.635,142.561 361.395,146.739 340.584,167.024 345.496,195.667 
		319.773,182.144 294.051,195.667 298.964,167.024 278.153,146.739 306.912,142.561 	"/>
	<path style="fill:#F7B239;" d="M317.282,236.911c-42.3,0-76.592-34.292-76.592-76.592c0-23.53,10.614-44.578,27.311-58.627
		c-48.63,5.491-86.424,46.754-86.424,96.852c0,53.837,43.643,97.48,97.48,97.48c50.097,0,91.361-37.794,96.852-86.424
		C361.859,226.298,340.811,236.911,317.282,236.911z"/>
</g>
</svg>